<?xml version="1.0" encoding="UTF-8" standalone="no"?>
<svg
   width="262.98795"
   height="271.59979"
   viewBox="0 0 69.582226 71.86078"
   version="1.1"
   id="svg8"
   inkscape:version="1.2.1 (9c6d41e410, 2022-07-14)"
   sodipodi:docname="logo.svg"
   inkscape:export-filename="logo.svg"
   inkscape:export-xdpi="196"
   inkscape:export-ydpi="196"
   xmlns:inkscape="http://www.inkscape.org/namespaces/inkscape"
   xmlns:sodipodi="http://sodipodi.sourceforge.net/DTD/sodipodi-0.dtd"
   xmlns="http://www.w3.org/2000/svg"
   xmlns:svg="http://www.w3.org/2000/svg"
   xmlns:rdf="http://www.w3.org/1999/02/22-rdf-syntax-ns#"
   xmlns:cc="http://creativecommons.org/ns#"
   xmlns:dc="http://purl.org/dc/elements/1.1/">
  <defs
     id="defs2" />
  <sodipodi:namedview
     id="base"
     pagecolor="#ffffff"
     bordercolor="#666666"
     borderopacity="1.0"
     inkscape:pageopacity="0.0"
     inkscape:pageshadow="2"
     inkscape:zoom="1"
     inkscape:cx="-31.999999"
     inkscape:cy="116"
     inkscape:document-units="mm"
     inkscape:current-layer="layer3"
     inkscape:document-rotation="0"
     showgrid="false"
     inkscape:window-width="1920"
     inkscape:window-height="1017"
     inkscape:window-x="-8"
     inkscape:window-y="-8"
     inkscape:window-maximized="1"
     units="px"
     fit-margin-top="32"
     fit-margin-left="32"
     fit-margin-bottom="32"
     fit-margin-right="32"
     lock-margins="true"
     inkscape:showpageshadow="2"
     inkscape:pagecheckerboard="0"
     inkscape:deskcolor="#d1d1d1" />
  <metadata
     id="metadata5">
    <rdf:RDF>
      <cc:Work
         rdf:about="">
        <dc:format>image/svg+xml</dc:format>
        <dc:type
           rdf:resource="http://purl.org/dc/dcmitype/StillImage" />
        <dc:title />
      </cc:Work>
    </rdf:RDF>
  </metadata>
  <g
     inkscape:groupmode="layer"
     id="layer3"
     inkscape:label="Layer 3"
     style="opacity:1;mix-blend-mode:normal"
     transform="translate(-70.990936,-40.618058)">
    <path
       id="path894"
       style="opacity:1;fill:#6f6f6f;fill-opacity:1;stroke-width:0.0438901"
       d="m 85.335196,80.406733 -3.211153,2.419305 c 0.14361,0.242889 0.491093,0.565237 0.786141,0.790052 0.890488,0.678517 2.541688,1.680072 3.384288,1.966288 1.225426,0.416248 2.416244,0.574405 3.696933,0.490927 0.740939,-0.04832 1.149138,-0.160354 1.492933,-0.409279 0.348781,-0.252537 0.798317,-0.354621 1.257803,-0.285771 l 0.307993,0.04599 1.828311,-0.469223 1.828313,-0.469739 0.349848,0.03307 c 0.482102,0.04587 0.84306,-0.05301 1.206129,-0.330729 l 0.264068,-0.201538 3.642157,-0.991153 c 0.37733,-0.102651 0.39553,-0.112853 0.74827,-0.209807 l 1.22939,-4.633826 c -0.41077,0.02 -0.63588,0.07994 -0.96635,0.283705 -0.28753,0.177279 -0.31951,0.186783 -4.540297,1.357022 l -4.250904,1.17874 -0.284737,0.208256 c -0.386683,0.282712 -0.777655,0.389863 -1.26969,0.347781 -0.33464,-0.02862 -0.396603,-0.01868 -1.481046,0.241329 -1.193286,0.286105 -1.567611,0.337514 -2.254644,0.309542 -0.641831,-0.02611 -1.041926,-0.137674 -1.956985,-0.545703 -0.872821,-0.389194 -1.254605,-0.804682 -1.773153,-1.104782 z"
       sodipodi:nodetypes="ccssssccccccccccscccsssssc" />
    <path
       id="path926"
       style="opacity:1;fill:#6f6f6f;fill-opacity:1;stroke-width:0.0438901"
       d="m 120.91403,57.907001 c -0.20435,0.03513 -0.40014,0.113163 -0.67593,0.248563 -0.41853,0.205484 -0.53639,0.241694 -2.10995,0.649058 -1.33335,0.345164 -1.72513,0.432614 -1.96009,0.438216 -0.39089,0.0093 -0.62585,0.07708 -1.14153,0.32866 -0.39706,0.193712 -0.56083,0.244514 -2.05931,0.638204 l -1.62832,0.427881 -0.42375,-0.05374 c -0.56941,-0.07217 -0.77454,-0.0181 -1.18081,0.312642 -0.28236,0.22986 -0.34037,0.258604 -0.8077,0.404109 -0.48691,0.151598 -2.95391,0.746265 -3.51606,0.847492 -5.3e-4,9.5e-5 -0.20078,0.211575 -0.20078,0.211575 l 1.02922,4.093138 c 0.17226,-0.101767 0.3401,-0.256566 0.53537,-0.346234 0.22242,-0.102131 0.54566,-0.268279 0.7183,-0.369485 0.27836,-0.163168 0.41306,-0.210508 1.19011,-0.416512 0.69627,-0.184582 0.94876,-0.234281 1.2299,-0.24288 0.31431,-0.0097 0.53846,-0.06132 2.00608,-0.459404 l 1.65209,-0.448035 0.27751,-0.233576 c 0.24362,-0.204899 0.31932,-0.244491 0.6165,-0.325562 0.27868,-0.07598 0.38946,-0.08454 0.62425,-0.04651 0.15697,0.02543 0.37616,0.04189 0.48731,0.03669 0.11317,-0.0053 0.86375,-0.188101 1.70583,-0.416513 1.33876,-0.362775 1.54524,-0.428969 1.87948,-0.599961 0.44718,-0.228764 0.87096,-0.350046 1.2671,-0.363286 0.15951,-0.0053 0.56559,-0.05535 0.90227,-0.111104 0.98438,-0.163052 1.49164,-0.168487 2.22519,-0.02326 0.89929,0.178049 1.67996,0.528913 2.36988,1.065567 1.0538,0.81969 1.7063,1.842151 2.00918,3.147094 0.0546,0.235223 0.0546,0.355114 0.078,0.514697 l 3.99097,0.0248 c -0.038,-0.199361 -0.27721,-1.182179 -0.26923,-1.388544 0.0236,-0.607062 -0.20966,-1.350867 -0.75034,-2.390552 -0.63421,-1.219571 -1.62734,-2.36718 -2.78691,-3.220993 -1.02573,-0.755264 -2.53216,-1.42844 -3.75119,-1.676384 -0.45592,-0.09273 -1.32371,-0.181451 -1.85777,-0.189651 -0.26947,-0.0041 -0.6962,-0.03058 -0.94827,-0.05891 -0.30944,-0.03478 -0.52222,-0.04236 -0.72657,-0.0072 z"
       sodipodi:nodetypes="csssscccsssccssscccccsscsccssscccssscscc" />
    <g
       aria-label="Kusari"
       id="text950"
       style="font-size:14.1111px;line-height:1.25;font-family:'Yuji Boku';-inkscape-font-specification:'Yuji Boku';letter-spacing:-1.44727px;word-spacing:0px;stroke-width:0.264583">
      <path
         d="m 93.733585,95.474956 q 0.01411,0.08467 -0.07055,0.127 -0.02822,0.01411 -0.04233,0.02822 -0.155222,0.169334 -0.493888,0.338667 -0.324556,0.169333 -0.677333,0.324555 -0.352778,0.141111 -0.550333,0.282222 -0.352777,0.127 -0.874888,0.451555 -0.522111,0.310445 -1.100666,0.705555 -0.564444,0.395111 -1.072444,0.747889 -0.507999,0.352777 -0.846666,0.550333 0.112889,0.352777 0.366889,0.620888 0.254,0.268111 0.536222,0.451558 0.08467,0.14111 0.381,0.43744 0.310444,0.28222 0.691443,0.635 0.381,0.33867 0.705555,0.67733 0.324556,0.32456 0.451556,0.56445 0.05644,-0.0282 0.112888,-0.0564 0.07056,-0.0282 0.112889,0.0141 0.282222,0.23989 0.465667,0.60678 0.197555,0.36689 0.26811,0.77611 -0.05644,0.0141 -0.112888,0 -0.04233,-0.0141 -0.08467,-0.0282 -0.155222,-0.0423 -0.183444,0.0282 -0.02822,0 -0.08467,0 -0.08467,0 -0.183444,0 -0.08467,0 -0.155222,0.0423 -0.451555,-0.28223 -0.931333,-0.64912 -0.479777,-0.36688 -0.917221,-0.73377 -0.423333,-0.381 -0.762,-0.66322 -0.127,-0.254 -0.423333,-0.56445 -0.296333,-0.31044 -0.64911,-0.64911 -0.338667,-0.33867 -0.620889,-0.66322 -0.282222,-0.324556 -0.366888,-0.620889 0.239888,-0.141111 0.126999,-0.451555 0.127,-0.08467 0.268111,-0.197555 0.155222,-0.127 0.211667,-0.239889 0.09878,-0.169333 0.522111,-0.493889 0.423333,-0.324555 1.03011,-0.705555 0.606777,-0.39511 1.255888,-0.77611 0.663222,-0.395111 1.227666,-0.691444 0.578555,-0.296333 0.90311,-0.409222 0.239889,-0.08467 0.437444,-0.07055 0.211667,0.01411 0.395111,0.05644 0.112889,0.02822 0.211666,0.04233 0.112889,0.01411 0.211667,0 0.02822,0.09878 0.112889,0.127 0.08467,0.01411 0.197555,0.02822 z m -6.081884,-1.961443 q 0.02822,0.508 -0.04233,0.959555 -0.07056,0.451555 -0.155223,0.874888 -0.02822,0.141111 -0.05644,0.296334 -0.02822,0.141111 -0.05644,0.282222 -0.05644,0.01411 -0.08467,0.05644 -0.02822,0.02822 -0.07055,0.05644 0.01411,0.310445 -0.08467,0.635 -0.09878,0.310444 -0.268111,0.592666 -0.08467,-0.02822 -0.09878,0.02822 -0.02822,0.04233 -0.04233,0.04233 0.02822,0.211666 -0.07055,0.550332 -0.08467,0.324556 -0.155223,0.536222 -0.02822,0.112889 -0.04233,0.141111 -0.127,0.155222 -0.225777,0.493889 -0.08467,0.324555 -0.169334,0.691444 -0.08467,0.36689 -0.155222,0.635 -0.07055,0.254 -0.141111,0.254 0.01411,0.29633 -0.05644,0.59267 -0.05644,0.29633 -0.211667,0.56444 0.01411,0.22578 -0.01411,0.40922 -0.02822,0.16933 -0.05644,0.36689 -0.02822,0.0847 -0.05644,0.19756 -0.01411,0.0988 -0.02822,0.21166 -0.04233,0.254 -0.183444,0.508 -0.127,0.254 -0.310444,0.35278 -0.169333,0.0988 -0.352778,-0.0988 -0.07055,0.127 -0.155222,0.0423 0.07056,-0.49388 0.112889,-0.86077 0.05644,-0.381 0.155222,-0.74789 0.01411,-0.0564 0.02822,-0.0988 0.01411,-0.0423 0.04233,-0.0847 0.02822,-0.0705 0.04233,-0.127 0.01411,-0.0705 0,-0.15522 -0.01411,-0.127 0.02822,-0.26811 0.05644,-0.15522 0.112889,-0.31044 0.05644,-0.15522 0.09878,-0.29634 0.05644,-0.15522 0.02822,-0.26811 0.141111,-0.14111 0.211666,-0.42333 0.08467,-0.282222 0.141111,-0.606777 0.05644,-0.338666 0.09878,-0.634999 0.05644,-0.296333 0.127,-0.451556 0.09878,-0.197555 0.183444,-0.536221 0.08467,-0.338667 0.197556,-0.606778 0.02822,-0.04233 0.08467,-0.08467 0.05644,-0.04233 0.07056,-0.112889 0.05644,-0.338666 0.183444,-0.733777 0.127,-0.409222 0.352777,-0.762 0.09878,-0.52211 0.282222,-0.987777 0.183445,-0.479777 0.451556,-1.086554 0.04233,0 0.09878,-0.04233 0.02822,-0.02822 0.07056,-0.04233 0.05644,-0.01411 0.141111,0.05644 z"
         id="path409" />
      <path
         d="m 101.10575,98.367732 q 0.0706,0.310444 0.0282,0.691444 -0.0282,0.366888 -0.0988,0.747888 -0.0423,0.268116 -0.0847,0.536226 -0.0282,0.254 -0.0282,0.508 0,0.0705 -0.0282,0.16933 -0.0282,0.0988 -0.0564,0.21167 -0.0564,0.22577 -0.0988,0.43744 -0.0423,0.19755 0.0706,0.23989 -0.0282,0.16933 -0.0706,0.52211 -0.0282,0.33867 -0.0847,0.67733 -0.0423,0.32456 -0.14111,0.47978 -0.19755,-0.0141 -0.36688,0.0282 -0.169338,0.0282 -0.19756,0.18345 -0.352778,-0.15523 -0.493889,-0.45156 -0.127,-0.31044 -0.141111,-0.70555 -0.01411,-0.26812 0.04233,-0.60678 0.07055,-0.33867 0.155222,-0.67733 0.09878,-0.47978 0.155222,-0.87489 0.05644,-0.40922 -0.08467,-0.550336 -0.197555,0.141116 -0.296333,0.366886 -0.09878,0.21167 -0.225777,0.40922 -0.112889,0.18345 -0.381,0.254 -0.01411,0.26812 -0.183444,0.55034 -0.169334,0.26811 -0.395111,0.53622 -0.225778,0.26811 -0.395111,0.53622 -0.169333,0.26811 -0.183444,0.53622 -0.352778,0.21167 -0.635,0.46567 -0.282222,0.254 -0.747888,0.40922 -0.127,-0.0988 -0.381,-0.15522 -0.239889,-0.0564 -0.381,0.0423 -0.183444,-0.0705 -0.296333,-0.18344 -0.112888,-0.11289 -0.296333,-0.16934 -0.352777,-0.49388 -0.479777,-1.11477 -0.112889,-0.635 -0.08467,-1.28411 0.04233,-0.66322 0.155222,-1.199446 0.04233,-0.183444 0.141111,-0.324555 0.09878,-0.141111 0.155222,-0.324556 0.141111,-0.39511 0.254,-0.832555 0.127,-0.451555 0.324556,-0.818443 0.211666,-0.366889 0.592666,-0.479778 -0.05644,0.592666 -0.169333,1.15711 -0.09878,0.550333 -0.197556,1.072444 -0.197555,0.945439 -0.310444,1.777999 -0.112889,0.83255 0.127,1.58044 0.282222,0.0564 0.677333,-0.16933 0.39511,-0.23989 0.846666,-0.66322 0.451555,-0.43745 0.90311,-0.95956 0.451555,-0.53622 0.846666,-1.058329 0.395111,-0.536222 0.677333,-0.973666 0.282222,-0.437444 0.381,-0.663222 0.05644,-0.366889 0.126999,-0.578555 0.07056,-0.211667 0.253996,-0.522111 0.36689,-0.112889 0.67734,0.08467 0.32455,0.183444 0.39511,0.465666 0.0141,0.08467 0.0141,0.155222 0,0.07056 0,0.155222 0,0.07056 -0.0141,0.169334 0,0.08467 0.0282,0.183444 z"
         id="path411" />
      <path
         d="m 107.56069,98.000843 q -0.0141,0.01411 -0.0423,0.05644 -0.0423,0.04233 -0.0847,0.09878 -0.0282,0.05644 -0.0141,0.127 -0.21166,0.02822 -0.43744,0.01411 -0.22578,-0.01411 -0.47978,-0.04233 -0.47977,-0.04233 -0.95955,-0.02822 -0.47978,0.01411 -0.80433,0.395111 0.19755,0.507999 0.52211,1.128888 0.33866,0.62089 0.64911,1.25589 0.32455,0.635 0.42333,1.21355 0.11289,0.52211 -0.11289,0.74789 -0.21167,0.22578 -0.69144,0.47978 -0.32456,0.16933 -0.67734,0.26811 -0.33866,0.0847 -0.90311,-0.0282 -0.32455,-0.0706 -0.508,-0.16934 -0.18344,-0.0988 -0.42333,-0.23989 -0.33867,-0.19755 -0.66322,-0.38099 -0.31044,-0.19756 -0.49389,-0.49389 0.0282,-0.14111 0.0141,-0.31045 -0.0141,-0.18344 -0.0282,-0.33866 -0.0141,-0.127 -0.0282,-0.22578 0,-0.0988 0.0141,-0.15522 0.16933,-0.0282 0.45155,0.11289 0.29634,0.12699 0.64911,0.31044 0.40923,0.22578 0.84667,0.43744 0.43744,0.19756 0.77611,0.16934 0.49389,-0.0282 0.56445,-0.39511 0.0705,-0.36689 -0.15523,-0.762 -0.0564,-0.11289 -0.127,-0.22578 -0.0705,-0.127 -0.14111,-0.254 -0.26811,-0.46567 -0.53622,-0.987778 -0.254,-0.536222 -0.33867,-1.114777 -0.0847,-0.578555 0.15523,-1.185332 0.98777,-0.338667 1.93322,-0.155223 0.94544,0.183445 1.651,0.677333 z"
         id="path413" />
      <path
         d="m 113.45118,103.41951 q -0.0847,-0.0282 -0.11289,0.0282 -0.0282,0.0564 -0.0564,0.14111 -0.0282,0.0988 -0.0847,0.16933 -0.0423,0.0847 -0.15522,0.0141 -0.0847,-0.31044 -0.11289,-0.66322 -0.0282,-0.36689 -0.0988,-0.69144 -0.0706,-0.32456 -0.28223,-0.508 -0.28222,0.31044 -0.64911,0.60678 -0.36689,0.29633 -0.45155,0.53622 -0.11289,0.0564 -0.23989,0.11289 -0.11289,0.0564 -0.22578,0.127 -0.39511,0.19755 -0.81844,0.36688 -0.40922,0.16934 -0.84667,0.11289 -0.39511,-0.0564 -0.83255,-0.19755 -0.42334,-0.15522 -0.66323,-0.46567 -0.0423,-0.0988 -0.0423,-0.16933 0,-0.0847 -0.11289,-0.14111 0.22578,-1.89089 1.03011,-3.175 0.81845,-1.28411 2.17311,-2.102554 0.0423,-0.07056 0.11289,-0.09878 0.0847,-0.04233 0.11289,-0.127 0.19756,0.127 0.43744,0.183445 0.254,0.05644 0.49389,0.07055 0.47978,0.691444 0.79022,1.566332 0.32456,0.860777 0.635,1.73567 -0.0141,0.19755 0.0141,0.40922 0.0282,0.19755 0.0706,0.40922 0.0706,0.40922 0.0988,0.86078 0.0282,0.43744 -0.18345,0.889 z m -1.08655,-2.61056 q -0.0282,-0.14111 -0.127,-0.52211 -0.0988,-0.380998 -0.26811,-0.818442 -0.15522,-0.437444 -0.36689,-0.762 -0.19756,-0.338666 -0.42333,-0.352777 -0.635,0.423333 -1.03011,0.959555 -0.381,0.52211 -0.66323,1.157114 -0.26811,0.635 -0.60677,1.39699 0.0423,0.0423 0.0423,0.127 0,0.0706 -0.0282,0.15523 -0.0141,0.0847 -0.0282,0.16933 0,0.0847 0.0423,0.127 0.47978,0.127 0.90311,0 0.42333,-0.14111 0.81844,-0.32456 0.254,-0.127 0.49389,-0.21166 0.23989,-0.0988 0.46567,-0.0988 0.0141,-0.14111 0.16933,-0.33867 0.15522,-0.19755 0.33867,-0.381 0.18344,-0.19755 0.26811,-0.28222 z"
         id="path415" />
      <path
         d="m 120.47057,99.24262 q -0.15523,0.04233 -0.28223,0.155222 -0.127,0.112889 -0.254,0.225778 -0.11288,0.09878 -0.29633,0.09878 -0.18344,-0.225777 -0.26811,-0.550332 -0.0705,-0.324556 -0.16933,-0.635 -0.0988,-0.310444 -0.36689,-0.451555 -0.11289,0.01411 -0.31045,0.112889 -0.18344,0.09878 -0.33866,0.225777 -0.15522,0.112889 -0.14111,0.239889 -0.127,0.05644 -0.28222,0.197555 -0.14112,0.141111 -0.22578,0.282222 -0.0847,0.141111 -0.0564,0.225778 -0.11289,0.04233 -0.15522,0.169333 -0.0423,0.112889 -0.0988,0.225778 -0.0423,0.112889 -0.18344,0.141111 0,0.04233 0.0282,0.08467 0.0423,0.05644 0,0.08467 -0.32455,0.40922 -0.53622,1.03011 -0.21167,0.60677 -0.39511,1.26999 -0.18345,0.64911 -0.40922,1.19945 -0.15523,0.0988 -0.29634,0.21166 -0.127,0.127 -0.28222,0.22578 -0.254,-0.15522 -0.47978,-0.33866 -0.22577,-0.18345 -0.39511,-0.40923 0.18345,-0.0705 0.18345,-0.22577 0.0141,-0.16934 0.0141,-0.33867 0.0141,-0.16933 0.19755,-0.22578 0.16934,-0.81844 0.26812,-1.80622 0.11288,-1.001887 0.254,-1.989664 0.14111,-0.987777 0.38099,-1.777999 0.14112,0.141111 0.16934,0.352778 0.0423,0.211666 0.0564,0.395111 0.0423,0.550333 0.0282,1.058332 0,0.508 0.0564,1.015999 0.60678,-0.747888 1.21355,-1.41111 0.60678,-0.663221 1.35467,-1.199443 0.53622,-0.183444 0.93133,-0.04233 0.40922,0.127 0.66322,0.437444 0.28223,0.324555 0.381,0.804332 0.11289,0.465667 0.0423,0.931333 z"
         id="path417" />
      <path
         d="m 123.69407,102.23417 q -0.11289,0.26811 -0.14111,0.56445 -0.0141,0.29633 0.0847,0.45155 -0.21166,0.19756 -0.56444,0.28222 -0.33867,0.0706 -0.69144,0.0988 -0.35278,0.0282 -0.62089,0.11289 -0.16934,-0.0282 -0.32456,-0.11289 -0.14111,-0.0847 -0.29633,-0.15522 -0.11289,-0.21167 -0.127,-0.59267 -0.0141,-0.39511 0.0564,-0.86077 0.0847,-0.46567 0.22578,-0.91722 0,-0.0282 0.0847,-0.32456 0.0988,-0.29633 0.22577,-0.69144 0.127,-0.395115 0.23989,-0.71967 0.11289,-0.338666 0.16934,-0.423333 0.0706,-0.268111 0.18344,-0.451555 0.127,-0.183445 0.23989,-0.366889 0.11289,-0.183444 0.15522,-0.451555 0.15522,-0.07056 0.18345,-0.155222 0.0282,-0.09878 0.127,-0.225778 0.0988,0.254 0.0564,0.536222 -0.0282,0.282222 -0.0847,0.536222 -0.0141,0.07055 -0.0282,0.127 0,0.05644 -0.0141,0.112889 0.0282,0.08467 -0.0706,0.409221 -0.0988,0.324556 -0.22578,0.747889 -0.127,0.366889 -0.254,0.761999 -0.11289,0.381 -0.18345,0.70556 -0.0564,0.32455 -0.0282,0.47977 -0.0141,0.11289 -0.0423,0.32456 -0.0282,0.21166 -0.0564,0.31044 0.127,0.11289 0.39511,0.11289 0.26812,-0.0141 0.57856,-0.0706 0.31044,-0.0564 0.55033,-0.11289 0.0564,-0.0141 0.0988,-0.0141 0.0564,-0.0141 0.0988,-0.0282 z m 1.04422,-6.745103 q -0.0282,0.09878 -0.0706,0.197556 -0.0423,0.09878 -0.0423,0.254 -0.0564,0 -0.15522,0.127 -0.0988,0.112888 -0.32456,0.225777 -0.21166,0.112889 -0.67733,0.112889 -0.18344,-0.09878 -0.28222,-0.268111 -0.0988,-0.169333 -0.21167,-0.310444 0.0706,-0.620889 0.29633,-0.945444 0.23989,-0.324555 0.86078,-0.127 0.14111,-0.01411 0.26811,0.141111 0.127,0.141111 0.22578,0.324556 0.0988,0.183444 0.11289,0.26811 z"
         id="path419" />
    </g>
  </g>
  <g
     inkscape:label="Layer 1"
     inkscape:groupmode="layer"
     id="layer1"
     transform="translate(-70.990936,-40.618058)">
    <g
       aria-label="鎖"
       id="text849"
       style="font-style:italic;font-size:50.8px;line-height:1.25;font-family:'Yuji Boku';-inkscape-font-specification:'Yuji Boku Italic';stroke-width:0.264583">
      <path
         d="m 130.1798,64.434791 c -0.47413,0.237067 -0.93133,0.440267 -1.3716,0.6096 -0.4064,0.169333 -0.88053,0.440267 -1.4224,0.8128 -0.47413,0.541867 -0.77893,1.185333 -0.9144,1.9304 -0.1016,0.7112 -0.18627,1.4224 -0.254,2.1336 -0.1016,0.541867 -0.18627,1.0668 -0.254,1.5748 -0.0677,0.474133 -0.2032,0.880533 -0.4064,1.2192 0.0677,1.490133 -0.0508,2.878667 -0.3556,4.1656 -0.3048,1.286933 -0.6604,2.54 -1.0668,3.7592 -0.16933,0.643467 -0.3556,1.286933 -0.5588,1.9304 -0.2032,0.643467 -0.37253,1.286933 -0.508,1.9304 -0.0677,0.06773 -0.18627,0.08467 -0.3556,0.0508 -0.1016,0 -0.18627,0.01693 -0.254,0.0508 -0.0677,0 -0.1524,0.08467 -0.254,0.254 -0.4064,-0.270933 -0.79587,-0.524933 -1.1684,-0.762 -0.33867,-0.270933 -0.74507,-0.575733 -1.2192,-0.9144 0.0677,-0.8128 -0.16933,-1.27 -0.7112,-1.3716 -0.508,-0.135467 -1.18533,-0.186267 -2.032,-0.1524 h -0.4572 c 0.64347,0.677333 1.4224,1.253067 2.3368,1.7272 0.9144,0.474133 1.74413,0.982133 2.4892,1.524 0.77893,0.541867 1.30387,1.3208 1.5748,2.3368 0.7112,0.7112 1.0668,1.659467 1.0668,2.8448 0,1.185333 -0.1016,2.353733 -0.3048,3.5052 -0.54187,0.135467 -1.15147,0.0508 -1.8288,-0.254 -0.67733,-0.3048 -1.30387,-0.728133 -1.8796,-1.27 -0.54187,-0.541867 -0.98213,-1.1176 -1.3208,-1.7272 -0.23707,-0.541867 -0.4064,-1.151467 -0.508,-1.8288 -0.1016,-0.7112 -0.28787,-1.354667 -0.5588,-1.9304 -0.33867,-0.8128 -0.72813,-1.540933 -1.1684,-2.1844 -0.44027,-0.677333 -0.72813,-1.3716 -0.8636,-2.0828 -0.0339,-0.2032 0.0847,-0.321733 0.3556,-0.3556 0.27093,-0.03387 0.4064,-0.135467 0.4064,-0.3048 -0.64347,0.03387 -1.45627,0.08467 -2.4384,0.1524 -0.98213,0.03387 -1.84573,0.1016 -2.5908,0.2032 0.27093,0.440267 0.38947,0.829733 0.3556,1.1684 -0.0339,0.3048 -0.0339,0.6604 0,1.0668 -0.4064,0.2032 -0.74507,0.491067 -1.016,0.8636 -0.23707,0.372533 -0.52493,0.7112 -0.8636,1.016 -0.3048,0.3048 -0.762,0.474133 -1.3716,0.508 -0.1016,0.2032 -0.13547,0.338667 -0.1016,0.4064 0.0677,0.03387 0.1524,0.0508 0.254,0.0508 0.16933,0.06773 0.23707,0.1524 0.2032,0.254 -0.27093,0.237067 -0.72813,0.508 -1.3716,0.8128 -0.6096,0.270933 -1.23613,0.6096 -1.8796,1.016 -0.6096,0.4064 -1.10067,0.948267 -1.4732,1.6256 -0.47413,0.2032 -0.98213,0.3556 -1.524,0.4572 -0.54187,0.135467 -0.94827,0.440267 -1.2192,0.9144 -0.44027,-0.03387 -0.93133,-0.08467 -1.473197,-0.1524 -0.508,-0.03387 -0.880533,-0.254 -1.1176,-0.6604 0.948265,-0.778933 1.947327,-1.5748 2.997197,-2.3876 1.04987,-0.8128 2.0828,-1.659467 3.0988,-2.54 1.016,-0.9144 1.86267,-1.9304 2.54,-3.048 -0.57573,-0.3048 -1.15147,-0.524933 -1.7272,-0.6604 -0.54187,-0.135467 -1.0668,-0.338667 -1.5748,-0.6096 -0.47413,-0.270933 -0.8636,-0.694267 -1.1684,-1.27 0.37253,0.03387 0.74507,0 1.1176,-0.1016 0.37253,-0.135467 0.7112,-0.270933 1.016,-0.4064 0.23707,-0.1016 0.47413,-0.186267 0.7112,-0.254 0.27093,-0.1016 0.54187,-0.135467 0.8128,-0.1016 -0.4064,-0.237067 -0.69427,-0.6604 -0.8636,-1.27 -0.16933,-0.6096 -0.2032,-1.2192 -0.1016,-1.8288 0.1016,-0.643467 0.37253,-1.100667 0.8128,-1.3716 0.37253,-1.185333 0.67733,-2.302933 0.9144,-3.3528 0.23707,-1.083733 0.57573,-2.1336 1.016,-3.1496 0.23707,-0.541867 0.3556,-1.100667 0.3556,-1.6764 0.0339,-0.575733 0,-0.982133 -0.1016,-1.2192 -0.1016,-0.2032 -0.27093,-0.338667 -0.508,-0.4064 -0.2032,-0.1016 -0.37253,-0.254 -0.508,-0.4572 -0.16933,-0.338667 -0.254,-0.745067 -0.254,-1.2192 0,-0.508 -0.22013,-0.846667 -0.6604,-1.016 0.54187,-0.270933 1.27,-0.4572 2.1844,-0.5588 0.9144,-0.135467 1.86267,-0.2032 2.8448,-0.2032 1.016,-0.03387 1.96427,-0.06773 2.8448,-0.1016 h 0.6096 0.5588 c 0.54187,-1.388533 0.9144,-2.5908 1.1176,-3.6068 0.23707,-1.049867 0.44027,-2.116667 0.6096,-3.2004 0.0339,-0.270933 0.0677,-0.5588 0.1016,-0.8636 0.0339,-0.3048 0.0847,-0.6096 0.1524,-0.9144 -0.64347,-0.372533 -1.04987,-0.948267 -1.2192,-1.7272 -0.13547,-0.8128 -0.37253,-1.540933 -0.7112,-2.1844 0.47413,-0.237067 0.9144,-0.338667 1.3208,-0.3048 0.44027,0.03387 0.88053,0.08467 1.3208,0.1524 0.27093,0.03387 0.508,0.06773 0.7112,0.1016 0.23707,0.03387 0.47413,0.03387 0.7112,0 0.2032,0.440267 0.44027,0.795867 0.7112,1.0668 0.3048,0.237067 0.6096,0.491067 0.9144,0.762 0.3048,0.270933 0.5588,0.694267 0.762,1.27 -0.33867,1.659467 -0.762,3.217333 -1.27,4.6736 -0.508,1.456267 -1.28693,2.980267 -2.3368,4.572 0.7112,0.06773 1.54093,0.01693 2.4892,-0.1524 0.98213,-0.169333 1.65947,-0.474133 2.032,-0.9144 0.23707,0.1016 0.3048,0.338667 0.2032,0.7112 0.13547,-0.03387 0.22013,-0.169333 0.254,-0.4064 0.0339,-0.135467 0.0508,-0.237067 0.0508,-0.3048 1.15147,0.135467 2.26907,0.491067 3.3528,1.0668 1.1176,0.575733 2.16747,1.0668 3.1496,1.4732 0,0.1016 0.0169,0.237067 0.0508,0.4064 v 0.254 c 0.0339,0.1016 0.0169,0.220133 -0.0508,0.3556 z m -22.3012,-6.5532 c -0.98213,0.2032 -1.86267,0.118533 -2.6416,-0.254 -0.74507,-0.372533 -1.38853,-0.9144 -1.9304,-1.6256 -0.508,-0.7112 -0.94827,-1.439333 -1.3208,-2.1844 -0.54187,0.338667 -1.016,0.762 -1.4224,1.27 -0.4064,0.508 -0.88053,0.948267 -1.422397,1.3208 0.237067,0.270933 0.1016,0.643467 -0.4064,1.1176 -0.474133,0.474133 -0.880533,0.8636 -1.2192,1.1684 -0.237067,0.169333 -0.3556,0.270933 -0.3556,0.3048 l 0.254,0.1524 c -0.135467,0.135467 -0.270933,0.220133 -0.4064,0.254 -0.135467,0 -0.3048,0.08467 -0.508,0.254 -0.338667,0.270933 -0.592667,0.626533 -0.762,1.0668 -0.169333,0.440267 -0.372533,0.778933 -0.6096,1.016 -0.03387,0.03387 -0.1524,0.0508 -0.3556,0.0508 -0.169333,0 -0.3048,0.03387 -0.4064,0.1016 -0.06773,0.06773 -0.0508,0.186267 0.0508,0.3556 0.06773,0.169333 0.06773,0.287867 0,0.3556 -0.135467,0.3048 -0.474133,0.592667 -1.016,0.8636 -0.508,0.237067 -0.880533,0.4572 -1.1176,0.6604 0.948267,0.135467 1.8288,0.2032 2.6416,0.2032 0.8128,0 1.6764,-0.135467 2.5908,-0.4064 0.6096,-0.169333 1.1684,-0.440267 1.6764,-0.8128 0.508,-0.372533 1.219197,-0.5588 2.133597,-0.5588 0.4064,0.474133 0.98213,0.829733 1.7272,1.0668 0.74507,0.2032 1.30387,0.575733 1.6764,1.1176 -0.74507,0.541867 -1.64253,0.9144 -2.6924,1.1176 -1.04987,0.2032 -2.218266,0.423333 -3.505197,0.6604 0.06773,0.338667 0.2032,0.6096 0.4064,0.8128 0.2032,0.2032 0.3556,0.440267 0.4572,0.7112 -0.169333,0.270933 -0.287867,0.592667 -0.3556,0.9652 l -0.2032,1.016 c -0.03387,0.270933 -0.06773,0.474133 -0.1016,0.6096 0.440267,0.2032 0.982132,0.389467 1.625597,0.5588 0.67733,0.135467 1.3208,0.338667 1.9304,0.6096 0.64347,0.270933 1.08373,0.6604 1.3208,1.1684 -0.33867,0.508 -0.8128,0.8128 -1.4224,0.9144 -0.6096,0.1016 -1.23613,0.1524 -1.8796,0.1524 -0.474131,0 -0.93133,0.01693 -1.371597,0.0508 -0.4064,0.03387 -0.778933,0.135467 -1.1176,0.3048 -0.474133,1.896533 -0.948267,3.742267 -1.4224,5.5372 -0.440267,1.794933 -0.982133,3.437467 -1.6256,4.9276 0.474133,0.338667 1.083733,0.5588 1.8288,0.6604 0.745067,0.1016 1.456267,0.237067 2.1336,0.4064 0.7112,0.135467 1.202266,0.4572 1.473197,0.9652 -0.846665,0.6096 -1.879597,1.032933 -3.098797,1.27 -1.2192,0.2032 -2.472267,0.440267 -3.7592,0.7112 -1.083733,0.237067 -2.1336,0.5588 -3.1496,0.9652 -1.016,0.440267 -1.845733,1.134533 -2.4892,2.0828 -1.524,0 -2.777067,-0.4572 -3.7592,-1.3716 -0.982133,-0.9144 -1.591733,-2.048933 -1.8288,-3.4036 1.354667,0.3048 2.573867,0.4064 3.6576,0.3048 1.1176,-0.135467 2.3368,-0.338667 3.6576,-0.6096 0.372533,-0.06773 0.762,-0.135467 1.1684,-0.2032 0.440267,-0.1016 0.897467,-0.186267 1.3716,-0.254 0.237067,-0.9144 0.508,-2.032 0.8128,-3.3528 0.3048,-1.354667 0.575733,-2.7432 0.8128,-4.1656 0.270933,-1.4224 0.474133,-2.7432 0.6096,-3.9624 -1.794933,0.508 -3.471333,0.643467 -5.0292,0.4064 -1.557867,-0.270933 -2.777067,-0.9652 -3.6576,-2.0828 1.185333,-0.338667 2.2352,-0.5588 3.1496,-0.6604 0.9144,-0.1016 1.845733,-0.186267 2.794,-0.254 0.948267,-0.06773 2.048933,-0.220133 3.302,-0.4572 0.135467,-0.778933 0.2032,-1.3716 0.2032,-1.778 v -1.1684 c 0,-0.372533 0.01693,-0.880533 0.0508,-1.524 -0.338667,0.1016 -0.677333,0.06773 -1.016,-0.1016 -0.3048,-0.2032 -0.626533,-0.4064 -0.9652,-0.6096 -0.338667,-0.237067 -0.677333,-0.440267 -1.016,-0.6096 -0.338667,-0.2032 -0.694267,-0.270933 -1.0668,-0.2032 -0.338667,0.06773 -0.6096,0.2032 -0.8128,0.4064 -0.2032,0.2032 -0.4064,0.423333 -0.6096,0.6604 -0.169333,0.270933 -0.372533,0.524933 -0.6096,0.762 -0.237067,0.2032 -0.541867,0.287867 -0.9144,0.254 0.135467,0.474133 -0.06773,0.931333 -0.6096,1.3716 -0.541867,0.4064 -1.100667,0.778933 -1.6764,1.1176 l -0.508,0.3048 c -0.169333,0.1016 -0.321733,0.2032 -0.4572,0.3048 l 0.3048,0.1524 c -0.2032,0.06773 -0.4064,0.1524 -0.6096,0.254 -0.2032,0.1016 -0.389467,0.186267 -0.5588,0.254 -0.778933,0.372533 -1.490133,0.626533 -2.1336,0.762 -0.6096,0.1016 -1.134533,-0.270933 -1.5748,-1.1176 0.474133,-0.508 0.846667,-0.8128 1.1176,-0.9144 l 0.9144,-0.4064 c 0.3048,-0.135467 0.7112,-0.440267 1.2192,-0.9144 0.702458,-0.860355 1.544581,-1.504977 1.9304,-2.0828 1.083733,-0.982133 2.015067,-2.048933 2.794,-3.2004 0.8128,-0.338667 1.4732,-0.8128 1.9812,-1.4224 0.541867,-0.6096 1.0668,-1.236133 1.5748,-1.8796 0.508,-0.677333 1.100667,-1.236133 1.778,-1.6764 0.4064,-0.8128 0.846667,-1.557867 1.3208,-2.2352 0.508,-0.677333 1.151467,-1.151467 1.9304,-1.4224 -0.1016,-0.169333 -0.1016,-0.372533 0,-0.6096 0.1016,-0.237067 0.237067,-0.491067 0.4064,-0.762 l 0.4064,-0.7112 c 0.169333,-0.270933 0.287867,-0.541867 0.3556,-0.8128 -0.135467,-0.508 -0.372533,-0.948267 -0.7112,-1.3208 -0.338667,-0.372533 -0.677333,-0.728133 -1.016,-1.0668 0.575733,-0.270933 1.185333,-0.474133 1.8288,-0.6096 0.643467,-0.169333 1.2192,-0.237067 1.7272,-0.2032 0.541867,0 0.846667,0.1524 0.914397,0.4572 0.23707,-0.135467 0.4064,-0.186267 0.508,-0.1524 0.13547,0.03387 0.27093,0.08467 0.4064,0.1524 0.1016,0.06773 0.22013,0.118533 0.3556,0.1524 0.13547,0.03387 0.3048,0.03387 0.508,0 0,0.1016 0.0169,0.2032 0.0508,0.3048 0.0339,0.135467 0.0339,0.254 0,0.3556 0.9144,0.3048 1.81187,0.846667 2.6924,1.6256 0.88053,0.745067 1.69333,1.456267 2.4384,2.1336 0,0.237067 0.0169,0.4572 0.0508,0.6604 0.0677,0.169333 0.1524,0.3556 0.254,0.5588 0.13547,0.372533 0.22013,0.762 0.254,1.1684 0.0677,0.4064 -0.0339,0.8636 -0.3048,1.3716 z m 12.9032,18.796 c 0.2032,-0.6096 0.4064,-1.405467 0.6096,-2.3876 0.2032,-0.982133 0.38947,-2.032 0.5588,-3.1496 0.2032,-1.1176 0.3556,-2.201333 0.4572,-3.2512 0.1016,-1.049867 0.11853,-1.9304 0.0508,-2.6416 -0.0677,-0.745067 -0.23707,-1.2192 -0.508,-1.4224 l -0.4064,0.3048 c -0.4064,-0.1016 -1.03293,-0.169333 -1.8796,-0.2032 -0.84667,-0.06773 -1.76107,-0.06773 -2.7432,0 -0.98213,0.03387 -1.8796,0.1524 -2.6924,0.3556 -0.8128,0.169333 -1.38853,0.423333 -1.7272,0.762 0,0.1016 0.0169,0.254 0.0508,0.4572 0.0339,0.3048 0.0508,0.677333 0.0508,1.1176 0,0.4064 -0.11853,0.9144 -0.3556,1.524 0.57573,0.1016 1.3716,0.06773 2.3876,-0.1016 1.016,-0.2032 1.9304,-0.4064 2.7432,-0.6096 0.54187,0.270933 0.99907,0.6096 1.3716,1.016 0.4064,0.372533 0.8128,0.762 1.2192,1.1684 -1.35467,0.1016 -2.76013,0.321733 -4.2164,0.6604 -1.45627,0.338667 -2.86173,0.541867 -4.2164,0.6096 -0.13547,0.372533 -0.28787,0.880533 -0.4572,1.524 -0.16933,0.643467 -0.27093,1.100667 -0.3048,1.3716 0.508,0.169333 1.1176,0.169333 1.8288,0 0.74507,-0.2032 1.524,-0.440267 2.3368,-0.7112 0.27093,-0.06773 0.4572,-0.118533 0.5588,-0.1524 0.7112,0.270933 1.43933,0.524933 2.1844,0.762 0.74507,0.2032 1.20227,0.677333 1.3716,1.4224 -1.18533,0 -2.25213,0.06773 -3.2004,0.2032 -0.9144,0.135467 -1.8288,0.3048 -2.7432,0.508 -0.9144,0.169333 -1.96427,0.3556 -3.1496,0.5588 -0.1016,0.440267 -0.22013,0.9652 -0.3556,1.5748 -0.1016,0.575733 -0.1524,1.185333 -0.1524,1.8288 1.55787,-0.135467 3.2512,-0.220133 5.08,-0.254 1.8288,-0.06773 3.57293,-0.169333 5.2324,-0.3048 0.1016,-0.338667 0.27093,-0.745067 0.508,-1.2192 0.23707,-0.508 0.4064,-0.948267 0.508,-1.3208 z m 9.1948,-20.6248 c -0.2032,0.440267 -0.5588,0.8128 -1.0668,1.1176 -0.508,0.3048 -0.99907,0.643467 -1.4732,1.016 -0.44027,0.338667 -0.77893,0.829733 -1.016,1.4732 -0.54187,0.338667 -1.03293,0.508 -1.4732,0.508 -0.44027,0 -0.84667,-0.01693 -1.2192,-0.0508 -0.27093,-0.03387 -0.52493,-0.0508 -0.762,-0.0508 -0.23707,0 -0.4572,0.0508 -0.6604,0.1524 0.0677,-0.338667 0.23707,-0.694267 0.508,-1.0668 0.27093,-0.372533 0.5588,-0.745067 0.8636,-1.1176 0.4064,-0.440267 0.762,-0.880533 1.0668,-1.3208 0.33867,-0.474133 0.5588,-0.9652 0.6604,-1.4732 0.0677,-0.3048 0.0677,-0.5588 0,-0.762 -0.0677,-0.237067 -0.1524,-0.4572 -0.254,-0.6604 -0.13547,-0.237067 -0.254,-0.474133 -0.3556,-0.7112 -0.0677,-0.270933 -0.0339,-0.592667 0.1016,-0.9652 0.3048,-0.372533 0.64347,-0.491067 1.016,-0.3556 0.4064,0.1016 0.74507,0.237067 1.016,0.4064 0.13547,0.03387 0.22013,0.06773 0.254,0.1016 0.508,0.237067 1.04987,0.474133 1.6256,0.7112 0.57573,0.2032 0.9652,0.423333 1.1684,0.6604 0.13547,0.2032 0.23707,0.541867 0.3048,1.016 0.0677,0.440267 -0.0339,0.897467 -0.3048,1.3716 z m -26.0604,22.2504 c -0.6096,0.338667 -1.13453,0.846667 -1.5748,1.524 -0.44027,0.643467 -0.8636,1.303867 -1.27,1.9812 -0.37253,0.677333 -0.82973,1.2192 -1.371597,1.6256 -0.1016,0.1016 -0.270933,0.1524 -0.508,0.1524 -0.135467,0.03387 -0.270933,0.08467 -0.4064,0.1524 -0.1016,0.03387 -0.169333,0.169333 -0.2032,0.4064 -0.270933,-0.03387 -0.626533,-0.03387 -1.0668,0 -0.440267,0.03387 -0.8128,0.08467 -1.1176,0.1524 0.169333,-0.372533 0.372533,-0.762 0.6096,-1.1684 l 0.7112,-1.2192 c 0.643467,-1.083733 1.236133,-2.218267 1.778,-3.4036 0.541867,-1.185333 0.677327,-2.3876 0.4064,-3.6068 0.677327,-0.237067 1.320797,-0.186267 1.930397,0.1524 0.6096,0.3048 1.10067,0.762 1.4732,1.3716 0.37253,0.6096 0.57573,1.236133 0.6096,1.8796 z m -13.715997,5.8928 c -0.4064,0.06773 -0.6604,0.237067 -0.762,0.508 -1.185333,-0.135467 -1.964267,-0.6096 -2.3368,-1.4224 -0.338667,-0.846667 -0.491067,-1.845733 -0.4572,-2.9972 0.03387,-1.185333 0.03387,-2.3368 0,-3.4544 1.1176,-0.169333 1.9812,0.1016 2.5908,0.8128 0.6096,0.677333 0.982133,1.608667 1.1176,2.794 0.169333,1.151467 0.118533,2.404533 -0.1524,3.7592 z M 112.603,61.132791 c -1.08373,0.169333 -1.86267,0.06773 -2.3368,-0.3048 -0.44027,-0.4064 -0.72813,-0.9652 -0.8636,-1.6764 -0.1016,-0.7112 -0.16933,-1.4732 -0.2032,-2.286 0,-0.474133 -0.0169,-0.948267 -0.0508,-1.4224 -0.0339,-0.474133 -0.1016,-0.9144 -0.2032,-1.3208 0.1016,-0.03387 0.16933,-0.1016 0.2032,-0.2032 0.0339,-0.1016 0.1016,-0.1524 0.2032,-0.1524 1.15147,0.1016 2.04893,0.524933 2.6924,1.27 0.67733,0.7112 1.0668,1.608667 1.1684,2.6924 0.13547,1.083733 -0.0677,2.218267 -0.6096,3.4036 z"
         style="stroke-width:0.264583"
         id="path976"
         sodipodi:nodetypes="cccccccscscccccccccsccscsccccccsccccccccccccccccccscccccccccsccccccccsccccccccsccccccccscscccccccccccccccscccccccssscccccscscccscscccccccssccccsccccccsccccccccccsscsscccccscccccsccsccccsccccccccscccsccccccsccccccccccscsccccccccscccccscsccccccccccccccccsccscscscccccccccccccccccccccscscsccscccccccccccccscscccc" />
    </g>
  </g>
  <g
     inkscape:groupmode="layer"
     id="layer2"
     inkscape:label="Layer 2"
     style="opacity:1"
     transform="translate(-70.990936,-40.618058)">
    <path
       id="path869"
       style="fill:#6f6f6f;fill-opacity:1;stroke-width:0.165884"
       d="m 393.625,295.375 -8.58398,18.63867 c 5.74457,-1.57892 15.56569,-4.33474 16.12304,-4.54297 1.57527,-0.58856 2.70899,-1.26003 3.48047,-2.06054 1.08023,-1.12091 1.41463,-1.31271 3.49609,-2.00586 1.9163,-0.63816 2.13303,-0.74845 3.34766,-1.71875 1.56219,-1.24797 3.70266,-3.34307 4.67774,-4.57813 0.39099,-0.49526 0.91984,-1.43726 1.17382,-2.0918 0.61954,-1.59655 0.96679,-2.12339 2.09766,-3.18945 1.52326,-1.43609 2.72565,-3.73313 3.95898,-7.56055 0.70016,-2.1727 0.76738,-3.20974 0.31641,-4.88671 -0.44243,-1.64836 -0.33993,-2.43559 0.52539,-4.03125 0.76615,-1.4107 0.9083,-2.24412 0.75977,-4.44336 -0.22315,-3.30638 -1.14169,-7.50643 -2.24414,-10.27149 -0.62049,-1.55647 -3.49138,-6.33892 -4.11133,-6.84765 -0.66622,-0.54663 -1.58495,-0.5139 -2.8418,0.0977 -0.56115,0.27307 -2.69926,1.01067 -4.75,1.64063 -2.78468,0.85544 -3.93016,1.27528 -4.52344,1.65429 -1.84263,1.17715 -1.88086,1.61318 -0.44922,5.03321 0.40642,0.97087 0.98103,2.37665 1.27735,3.12304 0.29658,0.74636 0.92951,2.03986 1.4043,2.875 l 0.86328,1.51954 0.16992,1.65625 c 0.21604,2.107 0.0725,4.37533 -0.41797,6.63085 -0.4653,2.1396 -1.18498,3.64101 -2.38086,4.97266 -0.49138,0.54717 -1.07792,1.42205 -1.30469,1.94336 -1.18684,2.72801 -2.44435,4.19051 -5.14648,5.98633 -2.56736,1.70627 -4.32561,2.35081 -6.5957,2.41797 -0.13549,0.004 -0.19739,0.033 -0.32227,0.0391 z"
       transform="scale(0.26458333)"
       sodipodi:nodetypes="ccsssssssscccsssssscccssscssc" />
    <path
       id="path899"
       style="fill:#6f6f6f;fill-opacity:1;stroke-width:0.165884"
       d="m 371.50195,241.44922 c -0.0222,3e-5 -0.63394,0.3932 -1.35742,0.87305 l -1.31445,0.87109 -5.96289,1.61328 c -5.3284,1.44137 -6.11647,1.61886 -7.40821,1.66992 -0.79502,0.0315 -1.87795,0.17508 -2.40625,0.31836 -0.52833,0.14331 -1.53443,0.56682 -2.23632,0.94141 -1.14752,0.61252 -1.90574,0.85056 -7.51953,2.375 -6.13594,1.66552 -6.27099,1.69613 -7.86329,1.70898 -2.01839,0.016 -2.71457,0.20448 -4.48242,1.22071 -0.7726,0.44412 -1.84842,0.92911 -2.39062,1.07617 -7.51113,2.03735 -14.67166,6.78141 -19.27539,12.77148 -1.27536,1.65943 -1.76307,2.69355 -1.89649,4.01367 -0.14744,1.45847 -0.68449,2.5058 -1.72461,3.36524 -0.47445,0.39205 -1.03795,0.9651 -1.25195,1.27344 -0.57956,0.83558 -1.61556,4.08414 -2.18945,6.86328 -0.37483,1.815 -0.67846,2.77131 -1.16016,3.66406 -0.86899,1.6105 -0.96096,2.54269 -0.39062,3.93359 0.6231,1.51909 1.16749,3.59888 1.65039,6.29883 0.91374,5.11017 3.02731,9.80185 6.7832,15.06836 0.71251,0.99908 1.2203,1.63261 1.74609,2.24219 l 11.69727,-9.69531 c -0.46897,-0.42841 -1.00206,-0.77239 -1.45703,-1.28125 -1.06964,-1.1964 -1.15351,-1.34689 -2.17774,-3.87696 -1.72549,-4.26303 -2.33367,-7.44249 -2.10547,-11.00586 0.12006,-1.87417 0.51125,-2.9707 1.52539,-4.26562 0.95722,-1.22223 1.07398,-1.53249 1.23438,-3.26758 0.15584,-1.68523 0.47335,-2.43391 1.69531,-4.00781 1.36814,-1.76222 2.96945,-3.25707 4.78321,-4.46485 2.802,-1.86588 3.42527,-2.10203 12.07812,-4.58007 6.93293,-1.9855 7.91591,-2.30072 8.69727,-2.79297 1.19802,-0.75476 3.07188,-1.23913 4.80468,-1.24024 1.27463,-8.1e-4 1.7293,-0.0994 7.29688,-1.61133 3.60219,-0.97766 6.15529,-1.74061 6.49023,-1.93945 0.38418,-0.2281 0.69224,-0.63742 1.01172,-1.3418 0.25255,-0.55687 0.90076,-1.8306 1.44141,-2.83203 0.54064,-1.00145 1.25983,-2.51488 1.59961,-3.36328 0.33966,-0.8484 1.01206,-2.33567 1.49414,-3.30469 1.53921,-3.09358 1.75131,-3.71675 1.69726,-5.02343 -0.069,-1.67541 -0.22674,-2.16296 -0.71679,-2.22071 -0.21956,-0.0259 -0.41678,-0.0473 -0.43946,-0.0469 z"
       transform="scale(0.26458333)" />
    <path
       id="path892"
       style="fill:#6f6f6f;fill-opacity:1;stroke-width:0.165884"
       d="m 402.1582,250.91016 -3.76367,-16.01563 c -1.1808,0.21476 -3.53881,1.26252 -4.69726,2.08985 -0.39984,0.28554 -1.02067,0.84441 -1.38086,1.24218 -0.36019,0.3978 -1.54004,1.45594 -2.6211,2.34961 -1.08106,0.89368 -2.72502,2.40024 -3.65429,3.34961 -1.71568,1.75283 -2.44656,2.30702 -3.375,2.56055 -0.74937,0.20466 -1.63922,0.93049 -1.85352,1.51172 -0.10205,0.27693 -0.19569,0.90331 -0.20703,1.39062 -0.0314,1.33067 -0.1627,1.76489 -1.24609,4.10742 -0.54724,1.1832 -1.35555,3.23281 -1.79493,4.55469 -0.43937,1.32191 -1.04239,2.87743 -1.33984,3.45703 -0.73905,1.43952 -0.89537,2.36382 -0.67578,3.97071 0.1028,0.75175 0.20804,2.40358 0.23828,3.67187 0.0995,4.34333 0.27906,5.43283 1.83789,11.18945 1.24392,4.59462 1.47297,5.30609 1.95898,6.07422 0.66048,1.04361 1.58954,1.63199 2.53907,1.60742 0.36982,-0.01 1.49579,-0.0395 2.5039,-0.0645 1.64977,-0.0407 2.13428,-0.12478 4.83789,-0.85937 4.41256,-1.1988 6.03483,-2.04953 6.30469,-3.30078 0.16335,-0.75767 -0.0985,-1.27944 -1.88281,-3.75196 -1.63053,-2.25976 -2.5049,-4.02078 -2.76758,-5.57422 -0.17424,-1.02941 -0.21444,-4.84301 -0.0742,-6.8789 0.11909,-1.72696 0.51451,-3.64079 1.20117,-5.79883 0.39742,-1.2496 0.54586,-2.06706 0.51563,-2.8418 -0.087,-2.1416 0.39516,-2.87923 2.40625,-3.67383 1.00652,-0.39768 1.56825,-0.7607 2.88281,-1.86132 1.26058,-1.05545 3.42385,-2.34358 4.54492,-3.00586 z"
       transform="scale(0.26458333)"
       sodipodi:nodetypes="ccsssssscsscscccsccscccccsscc" />
    <path
       id="path921"
       style="fill:#6f6f6f;fill-opacity:1;stroke-width:0.165884"
       d="m 498.28906,249.87109 -14.45898,2.65625 c 0.2353,1.59997 0.19736,2.79629 -0.45508,5.01758 -0.17424,0.59234 -0.31312,1.71458 -0.31055,2.49219 0.008,2.18292 -0.25095,2.98041 -1.86718,5.78711 -2.11873,3.6793 -3.25095,4.75213 -5.44727,5.15625 -1.51718,0.27917 -1.98603,0.59844 -2.85547,1.94531 -0.86302,1.33692 -1.28688,1.66405 -3.0625,2.35938 -2.34436,0.918 -10.16547,2.85833 -11.50781,2.85546 -0.68001,-0.001 -2.02548,0.23347 -3.94336,0.68555 -2.66619,0.62851 -3.05528,0.75872 -4.64453,1.56641 -1.66284,0.84494 -1.99785,0.95279 -8.06055,2.5918 -5.58913,1.51083 -6.41476,1.69981 -7.09961,1.625 -1.95912,-0.21412 -2.89993,0.79726 -2.41211,2.5957 0.46934,1.73035 0.20057,3.10492 -1.27148,6.48437 -1.16126,2.66602 -2.09789,4.35159 -2.98438,5.36914 -1.05403,1.20967 -1.3499,1.69416 -1.2539,2.04883 0.10159,0.37455 0.43313,0.41575 2.84375,0.34961 l 1.96289,-0.0547 6.08398,-1.65039 6.08399,-1.65039 1.13671,-0.95312 c 0.97728,-0.81857 1.29955,-0.99647 2.27735,-1.26172 0.9597,-0.2603 1.38557,-0.27516 2.70508,-0.0898 l 1.56445,0.2207 6.4043,-1.74024 c 5.68645,-1.54539 6.51098,-1.80415 7.36523,-2.3125 1.43048,-0.8512 6.45503,-2.3407 8.55078,-2.53515 0.853,-0.0791 1.9735,-0.25826 2.49024,-0.39844 2.55534,-0.69312 7.88598,-3.77747 8.79492,-5.08789 0.20046,-0.28903 0.51673,-0.98041 0.70117,-1.53516 0.46507,-1.39822 1.32359,-2.15705 2.93359,-2.59375 0.69419,-0.1883 1.38691,-0.48483 1.69532,-0.72461 1.00558,-0.78151 3.81552,-4.78395 4.6875,-6.67773 0.22382,-0.48612 0.52472,-1.57365 0.66797,-2.41602 0.22401,-1.31767 0.41867,-1.80346 1.39257,-3.47851 1.27163,-2.18701 1.66099,-3.55442 2.07032,-7.28516 0.39004,-3.5556 0.33521,-4.37761 -0.4961,-7.57226 -0.27643,-1.06297 -0.17833,-1.24942 -0.28125,-1.78907 z"
       transform="scale(0.26458333)" />
  </g>
</svg>
